<svg id="Layer_1" data-name="Layer 1" xmlns="http://www.w3.org/2000/svg" width="363.51" height="533" viewBox="0 0 363.51 533"><title>bg-1-s</title><g id="Group_37" data-name="Group 37"><path id="Path_31" data-name="Path 31" d="M214.55,0s-55.69,4.89-40.74,33.13S207.2,76,187.65,110.8s-63,33.14-24.44,66.81,27.15,90.71,4.88,103.2S90.42,338.93,51.32,297.65,0,275.93,0,275.93V0Z" transform="translate(0)" fill="#f9627d"/><path id="Path_32" data-name="Path 32" d="M204.63,0s-43.45,2.78-47.25,31.57S190,101.1,174.21,108.7s-54.31,25-23.35,73.33,34.76,86.9,6.52,94-54.86,52.69-94,11.41S.4,272.73.4,272.73V0Z" transform="translate(0)" fill="#f9ada0"/></g><rect x="0.46" width="363.05" height="533" fill="none"/></svg>