<svg preserveAspectRatio="none" id="Layer_1" data-name="Layer 1" xmlns="http://www.w3.org/2000/svg" viewBox="0 0 664.04 633.11"><defs><style>.cls-1{fill:#f9627d;}.cls-2{fill:#f9ada0;}</style></defs><title>bg-2</title><path id="Path_24" data-name="Path 24" class="cls-1" d="M1212,256.08s-77.82-58.31-154.46,23.8-73.9,125.9-199.8,83.47-305.27,68.06-309.48,127,35.79,286.27,159,195.95,90.32,78,180.64,117.69,66.53,75.85,154.11,62.16,170-75.85,170-75.85Z" transform="translate(-548 -236)"/><path id="Path_25" data-name="Path 25" class="cls-2" d="M1212,256.08s-69.11-46.7-145.74,35.4-99,143.74-200.58,85.76S577.2,430.76,576.39,493.92,552.85,736.24,710,671.25s76.49,57.49,166.81,97.17,166.8,101.22,243.73,66.4S1212,781.38,1212,781.38Z" transform="translate(-548 -236)"/></svg>