<svg id="Layer_1" preserveAspectRatio="none" data-name="Layer 1" xmlns="http://www.w3.org/2000/svg" width="1926.99" height="1080" viewBox="0 0 1926.99 1080"><title>bg-3</title><rect x="6.99" width="1920" height="1080" fill="none"/><path d="M2.31,114.57S24.79,236.53,184.08,251s460.49-75.3,544.47,55S925.49,450.85,870.46,560.9s-74,128.73-18.24,193.63,64.58,177.08-19.41,200.25-118.5,109.18-347.53,75.3-211.41-78.2-263.55-31.86S23.28,1099.58,2.32,1061.93,2.31,114.57,2.31,114.57Z" transform="translate(6.99 1)" fill="#f9627d"/><path d="M2.93,151.18S49.54,315.69,140.36,296.84s471-77.64,561.47,11.28S852.37,447.75,829.75,558.51s-57.26,136.64-10.92,209S870.32,896.26,806.36,936s-147.13,128.36-333.07,66.3-199.82-63.5-251.95-17.17S23.9,1066.5,2.93,1028.85,2.93,151.18,2.93,151.18Z" transform="translate(6.99 1)" fill="#f9ada0"/></svg>