<svg preserveAspectRatio="none" xmlns="http://www.w3.org/2000/svg" width="515.369" height="429.183" viewBox="0 0 515.369 429.183"><g transform="translate(-68.885 -1300.905)"><path d="M174.011,2891.219c3.123.115,113.288.062,116.631,0,148.718-2.717,411.4-77.042,318.013,194.164C671.68,3398.972,178.414,3313.9,158.041,3239.26,139,3150.1,58.223,2902.543,174.011,2891.219Z" transform="translate(-44 -1579)" fill="#f9627d"/><path d="M176.854,2910.893c3.123.115,112.492-8.935,115.834-9,148.718-2.717,332.883-97.841,303.644,181.062,63.025,313.589-418.767,209.5-431.367,144.134C145.922,3137.927,132.677,2916.813,176.854,2910.893Z" transform="translate(-42 -1578)" fill="#f9ada0"/></g></svg>