<svg id="Layer_1" data-name="Layer 1" xmlns="http://www.w3.org/2000/svg" width="566.02" height="197.69" viewBox="0 0 566.02 197.69"><title>logo-longer</title><path d="M0,0,70.49,111.86,141,0Z" fill="#eceded"/><path d="M16.32,14.83l48.1,76.32c3.34,5.55,9.49,4.39,12.42,0l48.31-76.32Z" fill="#e2007a"/><circle cx="43.21" cy="15.59" r="10.28" fill="#be0a26"/><rect x="67.78" y="98.24" width="5.61" height="98.31" fill="#eceded"/><path d="M110.18,195.26a2.43,2.43,0,0,1-2.43,2.43H33.37a2.43,2.43,0,1,1-.1-4.86h74.49A2.42,2.42,0,0,1,110.18,195.26Z" fill="#eceded"/><g style="isolation:isolate"><text transform="translate(110 118.21)" font-size="85" fill="#e2007a" font-family="Galada-Regular, Galada" style="isolation:isolate">!Thi<tspan x="128.35" y="0" letter-spacing="-0.07em">r</tspan><tspan x="154.53" y="0">sty T</tspan><tspan x="310.33" y="0" letter-spacing="0.01em">e</tspan><tspan x="343.82" y="0">am</tspan></text></g></svg>