<svg preserveAspectRatio="none" id="Layer_1" data-name="Layer 1" xmlns="http://www.w3.org/2000/svg" width="1124" height="2436.64" viewBox="0 0 1124 2436.64"><title>bg-2-s</title><g id="Group_38" data-name="Group 38"><path id="Path_41" data-name="Path 41" d="M1123.56,1546.17s-113.06-84.71-224.37,34.56S791.85,1763.61,609,1702s-443.42,98.86-449.54,184.49,52,415.82,230.89,284.63,131.19,113.3,262.39,170.95,96.64,110.17,223.86,90.3,247-110.18,247-110.18Z" fill="#f9627d"/><path id="Path_42" data-name="Path 42" d="M1123.56,1546.17s-100.4-67.84-211.71,51.43-143.8,208.78-291.35,124.57-419.09,77.73-420.26,169.48-34.2,352,194.07,257.59,111.11,83.5,242.3,141.15,242.3,147,354,96.45,132.91-77.63,132.91-77.63Z" fill="#f9ada0"/></g><rect width="1124" height="2436" fill="none"/></svg>