<svg id="Layer_1" preserveAspectRatio="none" data-name="Layer 1" xmlns="http://www.w3.org/2000/svg" width="1130.01" height="2436" viewBox="0 0 1130.01 2436"><title>bg-3-s</title><rect x="6.01" width="1124" height="2436" fill="none"/><g id="Group_39" data-name="Group 39"><path id="Path_45" data-name="Path 45" d="M5.19,1300.94s27,143.93,218,161,552.37-88.86,653.12,64.94,236.23,170.88,170.23,300.76-88.79,151.92-21.89,228.5,77.47,209-23.29,236.31-142.15,128.84-416.88,88.86-253.61-92.28-316.14-37.6-238,119.62-263.2,75.19S5.19,1300.94,5.19,1300.94Z" transform="translate(6.01)" fill="#f9627d"/><path id="Path_46" data-name="Path 46" d="M5.94,1346.11s55.83,193.49,164.62,171.33,564.2-91.31,672.57,13.27,180.34,164.21,153.24,294.48-68.59,160.7-13.09,245.87,61.68,151.37-14.94,198.15-176.25,151-399,78S330,2272.51,267.55,2327s-236.5,95.65-261.61,51.37S5.94,1346.11,5.94,1346.11Z" transform="translate(6.01)" fill="#f9ada0"/></g><rect x="6.01" width="1124" height="2436" fill="none"/></svg>