<?xml version="1.0"?>
<svg xmlns:rdf="http://www.w3.org/1999/02/22-rdf-syntax-ns#" xmlns="http://www.w3.org/2000/svg" xmlns:cc="http://creativecommons.org/ns#" xmlns:dc="http://purl.org/dc/elements/1.1/" xmlns:svg="http://www.w3.org/2000/svg" id="Ebene_1" xml:space="preserve" viewBox="0 0 565.68603 793.26095" version="1.1" y="0px" x="0px" enable-background="new 0 0 841.89 1190.55">
<polygon id="polygon3" points="154.44 182.31 437.28 631.15 720.12 182.31" fill="#eceded" transform="translate(-154.44 -182.31)"/>
<path id="path5" fill="#e2007a" d="m65.507 59.493 192.98 306.25c13.405 22.285 38.072 17.618 49.816 0l193.87-306.25-436.67 0.003z"/>
<circle id="circle7" transform="translate(-154.44 -182.31)" cy="244.86" cx="327.84" r="41.248" fill="#be0a26"/>
<rect id="rect9" height="394.48" width="22.498" y="394.22" x="271.96" fill="#eceded"/>
<path id="path11" fill="#eceded" d="m442.14 783.51c0 5.384-4.365 9.749-9.75 9.749h-298.48c-5.385 0-9.75-4.365-9.75-9.749 0-5.385 4.365-9.75 9.75-9.75h298.48c5.385 0 9.75 4.366 9.75 9.75z"/>
<metadata><rdf:RDF><cc:Work><dc:format>image/svg+xml</dc:format><dc:type rdf:resource="http://purl.org/dc/dcmitype/StillImage"/><cc:license rdf:resource="http://creativecommons.org/licenses/publicdomain/"/><dc:publisher><cc:Agent rdf:about="http://openclipart.org/"><dc:title>Openclipart</dc:title></cc:Agent></dc:publisher><dc:title>Cocktail</dc:title><dc:date>2010-08-05T13:43:32</dc:date><dc:description>Cocktail</dc:description><dc:source>http://openclipart.org/detail/77659/cocktail-by-hank0071</dc:source><dc:creator><cc:Agent><dc:title>hank0071</dc:title></cc:Agent></dc:creator><dc:subject><rdf:Bag><rdf:li>alcohol</rdf:li><rdf:li>beverage</rdf:li><rdf:li>clip art</rdf:li><rdf:li>clipart</rdf:li><rdf:li>cocktail</rdf:li><rdf:li>cosmopolitan</rdf:li><rdf:li>drink</rdf:li><rdf:li>party</rdf:li></rdf:Bag></dc:subject></cc:Work><cc:License rdf:about="http://creativecommons.org/licenses/publicdomain/"><cc:permits rdf:resource="http://creativecommons.org/ns#Reproduction"/><cc:permits rdf:resource="http://creativecommons.org/ns#Distribution"/><cc:permits rdf:resource="http://creativecommons.org/ns#DerivativeWorks"/></cc:License></rdf:RDF></metadata></svg>
